<?xml version="1.0" encoding="utf-8"?>
<!-- Uploaded to: SVG Repo, www.svgrepo.com, Generator: SVG Repo Mixer Tools -->
<svg fill="#000000" width="800px" height="800px" viewBox="0 -28.96 98.799 98.799" xmlns="http://www.w3.org/2000/svg">
  <g id="Branding" transform="translate(-131.139 -279.559)">
    <circle id="Ellipse_136" data-name="Ellipse 136" cx="1.703" cy="1.703" r="1.703" transform="translate(166.912 288.076)"/>
    <circle id="Ellipse_137" data-name="Ellipse 137" cx="1.703" cy="1.703" r="1.703" transform="translate(163.505 291.483)"/>
    <circle id="Ellipse_138" data-name="Ellipse 138" cx="1.703" cy="1.703" r="1.703" transform="translate(170.319 291.483)"/>
    <circle id="Ellipse_139" data-name="Ellipse 139" cx="1.703" cy="1.703" r="1.703" transform="translate(166.912 294.89)"/>
    <circle id="Ellipse_140" data-name="Ellipse 140" cx="1.703" cy="1.703" r="1.703" transform="translate(173.726 294.89)"/>
    <circle id="Ellipse_141" data-name="Ellipse 141" cx="1.703" cy="1.703" r="1.703" transform="translate(163.505 298.297)"/>
    <circle id="Ellipse_142" data-name="Ellipse 142" cx="1.703" cy="1.703" r="1.703" transform="translate(170.319 298.297)"/>
    <circle id="Ellipse_143" data-name="Ellipse 143" cx="1.703" cy="1.703" r="1.703" transform="translate(160.098 301.704)"/>
    <circle id="Ellipse_144" data-name="Ellipse 144" cx="1.703" cy="1.703" r="1.703" transform="translate(166.912 301.704)"/>
    <circle id="Ellipse_145" data-name="Ellipse 145" cx="1.703" cy="1.703" r="1.703" transform="translate(163.505 305.111)"/>
    <circle id="Ellipse_146" data-name="Ellipse 146" cx="1.703" cy="1.703" r="1.703" transform="translate(170.319 305.111)"/>
    <circle id="Ellipse_147" data-name="Ellipse 147" cx="1.703" cy="1.703" r="1.703" transform="translate(153.285 308.518)"/>
    <circle id="Ellipse_148" data-name="Ellipse 148" cx="1.703" cy="1.703" r="1.703" transform="translate(160.098 308.518)"/>
    <circle id="Ellipse_149" data-name="Ellipse 149" cx="1.703" cy="1.703" r="1.703" transform="translate(166.912 308.518)"/>
    <circle id="Ellipse_150" data-name="Ellipse 150" cx="1.703" cy="1.703" r="1.703" transform="translate(149.878 311.924)"/>
    <circle id="Ellipse_151" data-name="Ellipse 151" cx="1.703" cy="1.703" r="1.703" transform="translate(156.691 311.924)"/>
    <path id="Path_162" data-name="Path 162" d="M214.608,279.559a1.7,1.7,0,1,0,0,3.406,11.924,11.924,0,1,1-11.924,11.924,11.887,11.887,0,0,0-22.145-6.044,11.887,11.887,0,0,0-22.145,6.044,11.924,11.924,0,1,1-11.924-11.924,1.7,1.7,0,1,0,0-3.406,15.348,15.348,0,0,0-15.331,15.331,25.535,25.535,0,0,0,49.4,9.1,25.534,25.534,0,0,0,49.4-9.1A15.346,15.346,0,0,0,214.608,279.559ZM140.32,308.906a1.669,1.669,0,0,0-.368.413c-.283-.329-.583-.642-.848-.987C139.5,308.546,139.909,308.724,140.32,308.906Zm14.668,6.425a1.68,1.68,0,0,0-1.646,1.42,21.954,21.954,0,0,1-4.109-1.02,1.674,1.674,0,0,0-.9-.369,22.315,22.315,0,0,1-2.065-.966,1.66,1.66,0,0,0,.205-.769,1.7,1.7,0,0,0-1.7-1.7,1.673,1.673,0,0,0-1.315.663c-.409-.307-.816-.616-1.2-.949a1.676,1.676,0,0,0,.815-1.417,1.639,1.639,0,0,0-.085-.421,15.235,15.235,0,0,0,3.492.421,1.7,1.7,0,0,0,3.407,0,1.611,1.611,0,0,0-.078-.387,15.253,15.253,0,0,0,7.068-3.746,1.676,1.676,0,0,0-.176.727,1.7,1.7,0,1,0,1.7-1.7,1.659,1.659,0,0,0-.726.177,15.258,15.258,0,0,0,3.746-7.068,1.621,1.621,0,0,0,.387.078,1.7,1.7,0,0,0,0-3.406,8.419,8.419,0,0,1,.87-3.681,1.671,1.671,0,0,0,.819-1.361,8.591,8.591,0,0,1,1.786-1.786,1.674,1.674,0,0,0,1.361-.819,8.415,8.415,0,0,1,3.68-.87,1.7,1.7,0,0,0,3.274.658,8.448,8.448,0,0,1,1.795,1.054,1.7,1.7,0,1,0,1.737,1.736,8.483,8.483,0,0,1,1.054,1.794,1.7,1.7,0,0,0,.658,3.274,22.135,22.135,0,0,1-.3,3.467,1.651,1.651,0,0,0-.671,3.005q-.319,1.041-.735,2.035a1.7,1.7,0,1,0-1.7,1.712,1.673,1.673,0,0,0,1.091-.423,22.259,22.259,0,0,1-10.031,10.031,1.678,1.678,0,0,0,.423-1.091,1.7,1.7,0,1,0-1.712,1.7q-.994.416-2.035.735a1.652,1.652,0,0,0-3.006.671,22.147,22.147,0,0,1-3.467.3A1.708,1.708,0,0,0,154.988,315.331Zm49.4,1.7a22.17,22.17,0,0,1-22.145-22.145,8.517,8.517,0,1,1,17.034,0,15.324,15.324,0,0,0,22.7,13.441A22.105,22.105,0,0,1,204.387,317.034Z"/>
  </g>
</svg>